<mxfile host="Electron" modified="2024-03-20T15:14:51.583Z" agent="Mozilla/5.0 (Windows NT 10.0; Win64; x64) AppleWebKit/537.36 (KHTML, like Gecko) draw.io/24.0.4 Chrome/120.0.6099.109 Electron/28.1.0 Safari/537.36" etag="SEmRxN9d0PsZypqWQ3sX" version="24.0.4" type="device">
  <diagram name="Pagina-1" id="3MmwQHfzR_GFmwhmF2Ha">
    <mxGraphModel dx="733" dy="1612" grid="1" gridSize="10" guides="1" tooltips="1" connect="1" arrows="1" fold="1" page="1" pageScale="1" pageWidth="827" pageHeight="1169" math="0" shadow="0">
      <root>
        <mxCell id="0" />
        <mxCell id="1" parent="0" />
        <mxCell id="j69RZR-mA-NiFaKb2fhS-1" value="PRESTITI" style="rounded=0;whiteSpace=wrap;html=1;" vertex="1" parent="1">
          <mxGeometry x="290" y="-100" width="120" height="60" as="geometry" />
        </mxCell>
        <mxCell id="j69RZR-mA-NiFaKb2fhS-26" style="edgeStyle=orthogonalEdgeStyle;rounded=0;orthogonalLoop=1;jettySize=auto;html=1;entryX=1;entryY=0.5;entryDx=0;entryDy=0;endArrow=classic;endFill=1;" edge="1" parent="1" source="j69RZR-mA-NiFaKb2fhS-2" target="j69RZR-mA-NiFaKb2fhS-1">
          <mxGeometry relative="1" as="geometry">
            <Array as="points">
              <mxPoint x="550" y="-70" />
            </Array>
          </mxGeometry>
        </mxCell>
        <mxCell id="j69RZR-mA-NiFaKb2fhS-2" value="LIBRI" style="rounded=0;whiteSpace=wrap;html=1;" vertex="1" parent="1">
          <mxGeometry x="490" y="130" width="120" height="60" as="geometry" />
        </mxCell>
        <mxCell id="j69RZR-mA-NiFaKb2fhS-3" value="UTENTI" style="rounded=0;whiteSpace=wrap;html=1;" vertex="1" parent="1">
          <mxGeometry x="130" y="130" width="120" height="60" as="geometry" />
        </mxCell>
        <mxCell id="j69RZR-mA-NiFaKb2fhS-4" value="" style="ellipse;whiteSpace=wrap;html=1;aspect=fixed;" vertex="1" parent="1">
          <mxGeometry x="230" y="200" width="20" height="20" as="geometry" />
        </mxCell>
        <mxCell id="j69RZR-mA-NiFaKb2fhS-5" value="Nome" style="text;html=1;align=center;verticalAlign=middle;resizable=0;points=[];autosize=1;strokeColor=none;fillColor=none;" vertex="1" parent="1">
          <mxGeometry x="240" y="198" width="60" height="30" as="geometry" />
        </mxCell>
        <mxCell id="j69RZR-mA-NiFaKb2fhS-10" value="" style="ellipse;whiteSpace=wrap;html=1;aspect=fixed;" vertex="1" parent="1">
          <mxGeometry x="230" y="222" width="20" height="20" as="geometry" />
        </mxCell>
        <mxCell id="j69RZR-mA-NiFaKb2fhS-11" value="Cognome" style="text;html=1;align=center;verticalAlign=middle;resizable=0;points=[];autosize=1;strokeColor=none;fillColor=none;" vertex="1" parent="1">
          <mxGeometry x="238" y="220" width="80" height="30" as="geometry" />
        </mxCell>
        <mxCell id="j69RZR-mA-NiFaKb2fhS-12" value="" style="ellipse;whiteSpace=wrap;html=1;aspect=fixed;fillColor=#020203;" vertex="1" parent="1">
          <mxGeometry x="230" y="244" width="20" height="20" as="geometry" />
        </mxCell>
        <mxCell id="j69RZR-mA-NiFaKb2fhS-13" value="Email" style="text;html=1;align=center;verticalAlign=middle;resizable=0;points=[];autosize=1;strokeColor=none;fillColor=none;" vertex="1" parent="1">
          <mxGeometry x="245" y="242" width="50" height="30" as="geometry" />
        </mxCell>
        <mxCell id="j69RZR-mA-NiFaKb2fhS-14" value="" style="ellipse;whiteSpace=wrap;html=1;aspect=fixed;" vertex="1" parent="1">
          <mxGeometry x="592" y="200" width="20" height="20" as="geometry" />
        </mxCell>
        <mxCell id="j69RZR-mA-NiFaKb2fhS-15" value="Titolo" style="text;html=1;align=center;verticalAlign=middle;resizable=0;points=[];autosize=1;strokeColor=none;fillColor=none;" vertex="1" parent="1">
          <mxGeometry x="607" y="198" width="50" height="30" as="geometry" />
        </mxCell>
        <mxCell id="j69RZR-mA-NiFaKb2fhS-16" value="" style="ellipse;whiteSpace=wrap;html=1;aspect=fixed;" vertex="1" parent="1">
          <mxGeometry x="592" y="222" width="20" height="20" as="geometry" />
        </mxCell>
        <mxCell id="j69RZR-mA-NiFaKb2fhS-17" value="Anno Pubb" style="text;html=1;align=center;verticalAlign=middle;resizable=0;points=[];autosize=1;strokeColor=none;fillColor=none;" vertex="1" parent="1">
          <mxGeometry x="602" y="220" width="80" height="30" as="geometry" />
        </mxCell>
        <mxCell id="j69RZR-mA-NiFaKb2fhS-18" value="" style="ellipse;whiteSpace=wrap;html=1;aspect=fixed;" vertex="1" parent="1">
          <mxGeometry x="592" y="244" width="20" height="20" as="geometry" />
        </mxCell>
        <mxCell id="j69RZR-mA-NiFaKb2fhS-19" value="Disponibilita" style="text;html=1;align=center;verticalAlign=middle;resizable=0;points=[];autosize=1;strokeColor=none;fillColor=none;" vertex="1" parent="1">
          <mxGeometry x="600" y="242" width="90" height="30" as="geometry" />
        </mxCell>
        <mxCell id="j69RZR-mA-NiFaKb2fhS-20" value="" style="ellipse;whiteSpace=wrap;html=1;aspect=fixed;" vertex="1" parent="1">
          <mxGeometry x="390" y="-28" width="20" height="20" as="geometry" />
        </mxCell>
        <mxCell id="j69RZR-mA-NiFaKb2fhS-21" value="Data Prestito" style="text;html=1;align=center;verticalAlign=middle;resizable=0;points=[];autosize=1;strokeColor=none;fillColor=none;" vertex="1" parent="1">
          <mxGeometry x="400" y="-33" width="90" height="30" as="geometry" />
        </mxCell>
        <mxCell id="j69RZR-mA-NiFaKb2fhS-22" value="" style="ellipse;whiteSpace=wrap;html=1;aspect=fixed;" vertex="1" parent="1">
          <mxGeometry x="390" y="-6" width="20" height="20" as="geometry" />
        </mxCell>
        <mxCell id="j69RZR-mA-NiFaKb2fhS-23" value="Data Ritorno" style="text;html=1;align=center;verticalAlign=middle;resizable=0;points=[];autosize=1;strokeColor=none;fillColor=none;" vertex="1" parent="1">
          <mxGeometry x="400" y="-11" width="90" height="30" as="geometry" />
        </mxCell>
        <mxCell id="j69RZR-mA-NiFaKb2fhS-27" style="edgeStyle=orthogonalEdgeStyle;rounded=0;orthogonalLoop=1;jettySize=auto;html=1;entryX=-0.004;entryY=0.562;entryDx=0;entryDy=0;entryPerimeter=0;endArrow=doubleBlock;endFill=1;" edge="1" parent="1" source="j69RZR-mA-NiFaKb2fhS-3" target="j69RZR-mA-NiFaKb2fhS-1">
          <mxGeometry relative="1" as="geometry">
            <Array as="points">
              <mxPoint x="190" y="-66" />
            </Array>
          </mxGeometry>
        </mxCell>
        <mxCell id="j69RZR-mA-NiFaKb2fhS-28" value="" style="endArrow=none;html=1;rounded=0;" edge="1" parent="1">
          <mxGeometry width="50" height="50" relative="1" as="geometry">
            <mxPoint x="525" y="120" as="sourcePoint" />
            <mxPoint x="575" y="120" as="targetPoint" />
          </mxGeometry>
        </mxCell>
        <mxCell id="j69RZR-mA-NiFaKb2fhS-29" value="" style="endArrow=none;html=1;rounded=0;" edge="1" parent="1">
          <mxGeometry width="50" height="50" relative="1" as="geometry">
            <mxPoint x="165" y="120" as="sourcePoint" />
            <mxPoint x="215" y="120" as="targetPoint" />
          </mxGeometry>
        </mxCell>
      </root>
    </mxGraphModel>
  </diagram>
</mxfile>
